<svg width="176" height="72" viewBox="0 0 22 18" fill="none" xmlns="http://www.w3.org/2000/svg" role="img" aria-labelledby="title description">
  <title id="title">Pathsta</title>
  <desc id="description">A minimal horizontal fusilli pasta mark</desc>
  <g clip-path="url(#fusilli-clip)">
    <path d="M19.1889 6.5947C19.3642 6.41743 19.6626 6.5776 19.6117 6.82164L19.3522 8.06575C19.2466 8.57204 19.3067 9.09887 19.5237 9.56834C19.7175 9.98762 19.5865 10.4854 19.2115 10.7551L19.1463 10.8019C18.2274 11.4625 16.9907 11.4673 16.0667 10.814L15.7558 10.5941C15.5952 10.4805 15.5749 10.2499 15.7132 10.11L19.1889 6.5947Z" fill="black"/>
    <path d="M13.0434 7.24659C14.1655 6.12449 15.9848 6.12449 17.1069 7.24659C17.2192 7.35881 17.2192 7.54073 17.1069 7.65294L14.5917 10.1682C13.4696 11.2903 11.6503 11.2903 10.5282 10.1682C10.416 10.0559 10.416 9.87402 10.5282 9.76181L13.0434 7.24659Z" fill="black"/>
    <path d="M7.5161 7.24659C8.63821 6.12449 10.4575 6.12449 11.5796 7.24659C11.6918 7.35881 11.6918 7.54073 11.5796 7.65294L9.06439 10.1682C7.94228 11.2903 6.12299 11.2903 5.00089 10.1682C4.88868 10.0559 4.88868 9.87402 5.00089 9.76181L7.5161 7.24659Z" fill="black"/>
    <path d="M2.78177 10.9385C2.6065 11.1158 2.30813 10.9556 2.35903 10.7116L2.61851 9.46746C2.72411 8.96116 2.66397 8.43433 2.44699 7.96486C2.2532 7.54558 2.38418 7.04777 2.75921 6.77815L2.82444 6.73126C3.74328 6.07069 4.98003 6.06586 5.904 6.71924L6.21487 6.93906C6.37553 7.05267 6.39583 7.28332 6.25748 7.42324L2.78177 10.9385Z" fill="black"/>
  </g>
  <defs>
    <clipPath id="fusilli-clip">
      <rect width="22" height="18" fill="white"/>
    </clipPath>
  </defs>
</svg>
